<?xml version="1.0" encoding="utf-8"?>
<!-- Generator: Adobe Illustrator 15.0.2, SVG Export Plug-In . SVG Version: 6.00 Build 0)  -->
<!DOCTYPE svg PUBLIC "-//W3C//DTD SVG 1.1//EN" "http://www.w3.org/Graphics/SVG/1.1/DTD/svg11.dtd">
<svg version="1.1" id="Layer_1" xmlns="http://www.w3.org/2000/svg" xmlns:xlink="http://www.w3.org/1999/xlink" x="0px" y="0px"
	 width="992.13px" height="283.46px" viewBox="0 0 992.13 283.46" enable-background="new 0 0 992.13 283.46" xml:space="preserve">
<g>
	<g>
		<path fill="#1A1A1A" d="M394.896,134.546h-38.117c-2.824,0-17.629-0.471-17.629-13.636v-3.884
			c0-13.158,14.805-14.097,17.629-14.097h31.066c2.588,0,14.805,0.707,17.156,10.574c0.237,1.88,1.414,3.523,3.531,3.523h17.624
			c1.64,0,3.528-1.403,3.528-3.523c-1.888-18.564-17.399-31.488-38.315-31.488h-38.358c-22.323,0-38.537,14.803-38.537,35.011v3.884
			c0,20.212,16.214,35.019,38.537,35.019h38.358c2.588,0,17.393,0.474,17.393,13.632v3.408c0,13.16-14.805,14.1-17.393,14.1h-34.59
			c-2.588,0-15.047-0.702-16.924-10.574c-0.705-1.881-1.883-3.525-3.527-3.525h-18.1c-1.645,0-3.285,1.409-3.051,3.525
			c1.406,18.33,16.92,31.492,38.074,31.492h41.645c22.326,0,38.546-14.807,38.546-35.018v-3.408
			C433.442,149.352,417.223,134.546,394.896,134.546"/>
		<path fill="#1A1A1A" d="M788.735,134.562h-38.117c-2.824,0-17.629-0.469-17.629-13.634v-3.884
			c0-13.158,14.805-14.097,17.629-14.097h31.066c2.588,0,14.805,0.707,17.156,10.574c0.236,1.88,1.413,3.523,3.53,3.523h17.624
			c1.641,0,3.528-1.403,3.528-3.523c-1.888-18.564-17.399-31.488-38.315-31.488h-38.357c-22.323,0-38.537,14.803-38.537,35.011
			v3.884c0,20.212,16.214,35.018,38.537,35.018h38.357c2.589,0,17.394,0.474,17.394,13.632v3.408c0,13.161-14.805,14.1-17.394,14.1
			h-34.59c-2.588,0-15.047-0.702-16.924-10.574c-0.705-1.88-1.883-3.525-3.527-3.525h-18.1c-1.646,0-3.285,1.41-3.051,3.525
			c1.405,18.329,16.92,31.492,38.074,31.492h41.645c22.326,0,38.546-14.808,38.546-35.018v-3.408
			C827.281,149.367,811.062,134.562,788.735,134.562"/>
		<path fill="#1A1A1A" d="M506.557,80.69L506.557,80.69c-0.013-0.001-0.023,0-0.036,0s-0.024-0.001-0.037-0.001v0.001
			c-27.471,0.023-54.132,12.87-54.132,47.182v77.08c0,1.813,1.607,3.018,3.02,3.018h15.091c1.809,0,3.017-1.204,3.017-3.018v-37.167
			h66.081v37.167c0,1.813,1.207,3.018,3.017,3.018h15.093c1.411,0,3.02-1.204,3.02-3.018v-77.08
			C560.689,93.56,534.027,80.713,506.557,80.69 M539.561,146.326h-66.081v-16.353c0-17.548,11.787-28.632,33.041-28.645
			c21.253,0.013,33.04,11.097,33.04,28.645V146.326z"/>
		<path fill="#1A1A1A" d="M635.521,80.69L635.521,80.69c-0.013-0.001-0.023,0-0.036,0s-0.024-0.001-0.037-0.001v0.001
			c-27.471,0.023-54.132,12.87-54.132,47.182v77.08c0,1.813,1.606,3.018,3.02,3.018h15.092c1.809,0,3.017-1.204,3.017-3.018v-37.167
			h66.081v37.167c0,1.813,1.207,3.018,3.017,3.018h15.093c1.411,0,3.02-1.204,3.02-3.018v-77.08
			C689.653,93.56,662.991,80.713,635.521,80.69 M668.524,146.326h-66.081v-16.353c0-17.548,11.787-28.632,33.041-28.645
			c21.253,0.013,33.04,11.097,33.04,28.645V146.326z"/>
		<path fill="#1A1A1A" d="M950.812,82.032H935.72c-1.809,0-3.016,1.204-3.016,3.018v38.761v21.069v15.149
			c0,17.548-11.788,28.632-33.041,28.645c-21.254-0.013-33.041-11.097-33.041-28.645V144.88v-21.069V85.05
			c0-1.814-1.207-3.018-3.016-3.018h-15.092c-1.412,0-3.02,1.204-3.02,3.018v77.08c0,34.312,26.66,47.159,54.13,47.182v0.001
			c0.015,0,0.024-0.001,0.038-0.001c0.012,0,0.023,0.001,0.037,0.001v-0.001c27.471-0.022,54.131-12.87,54.131-47.182V85.05
			C953.831,83.236,952.224,82.032,950.812,82.032"/>
	</g>
	<rect x="37.001" y="28.029" fill="#FF850D" width="233.999" height="234"/>
	<path fill="#FFFFFF" d="M225.329,82.146h-0.01h-0.003c-53.085,0.005-70.221,32.502-83.132,58.609
		c-0.311,0.629-0.621,1.25-0.932,1.869h0.005c-11.942,23.706-24.199,40.377-58.716,40.377v0.012
		c-1.666,0.059-2.766,1.193-2.766,2.885v19.116c-0.001,1.319,1.1,2.808,2.766,2.885v0.008h0.011h0.003
		c0.016,0,0.032-0.001,0.049-0.001c0.024,0.001,0.045,0.008,0.069,0.008v-0.009c52.99-0.055,70.112-32.52,83.012-58.608
		c0.312-0.63,0.623-1.25,0.934-1.87h-0.005c11.942-23.704,24.198-40.376,58.715-40.376v0.007c1.742,0,2.897-1.159,2.897-2.895
		V85.044C228.227,83.688,227.071,82.145,225.329,82.146"/>
</g>
</svg>
