<svg width="1185" height="130" viewBox="0 0 1185 130" style="opacity:.8" fill="none" xmlns="http://www.w3.org/2000/svg">
<g style="mix-blend-mode:multiply">
<path d="M1020.16 129.092V128.033C1020.16 125.611 1022.13 123.644 1024.55 123.644H1036.36C1041.36 123.644 1040.6 128.638 1040.45 129.092H1020.16V129.092Z" stroke="#000000" stroke-width="0.75" stroke-miterlimit="10"/>
<path d="M1017.89 96.2515H959.315V129.092H1017.89V96.2515Z" stroke="#000000" stroke-width="0.75" stroke-miterlimit="10"/>
<path d="M1021.07 93.2247H956.288V96.1001H1021.07V93.2247Z" stroke="#000000" stroke-width="0.75" stroke-miterlimit="10"/>
<path d="M992.767 101.548H975.814V104.424H992.767V101.548Z" stroke="#000000" stroke-width="0.75" stroke-miterlimit="10"/>
<path d="M1011.99 101.548H995.038V104.424H1011.99V101.548Z" stroke="#000000" stroke-width="0.75" stroke-miterlimit="10"/>
<path d="M970.668 101.246H964.311V102.154H970.668V101.246Z" stroke="#000000" stroke-width="0.75" stroke-miterlimit="10"/>
<path d="M970.668 103.97H964.311V104.878H970.668V103.97Z" stroke="#000000" stroke-width="0.75" stroke-miterlimit="10"/>
<path d="M970.365 117.893H964.311V121.222H970.365V117.893Z" stroke="#000000" stroke-width="0.75" stroke-miterlimit="10"/>
<path d="M977.479 117.893H971.425V121.222H977.479V117.893Z" stroke="#000000" stroke-width="0.75" stroke-miterlimit="10"/>
<path d="M1006.84 117.893H1000.79V121.222H1006.84V117.893Z" stroke="#000000" stroke-width="0.75" stroke-miterlimit="10"/>
<path d="M1013.96 117.893H1007.9V121.222H1013.96V117.893Z" stroke="#000000" stroke-width="0.75" stroke-miterlimit="10"/>
<path d="M988.377 117.893H981.566V128.789H988.377V117.893Z" stroke="#000000" stroke-width="0.75" stroke-miterlimit="10"/>
<path d="M995.34 117.893H988.529V128.789H995.34V117.893Z" stroke="#000000" stroke-width="0.75" stroke-miterlimit="10"/>
<path d="M1032.12 112.747H959.315V109.721H1034.85L1032.12 112.747Z" stroke="#000000" stroke-width="0.75" stroke-miterlimit="10"/>
<path d="M1032.12 112.747H1017.89V128.941H1032.12V112.747Z" stroke="#000000" stroke-width="0.75" stroke-miterlimit="10"/>
<path d="M1017.89 104.272L1023.34 107.299V109.569" stroke="#000000" stroke-width="0.75" stroke-miterlimit="10"/>
<path d="M1026.37 109.569L1026.22 104.726L1028.19 103.364" stroke="#000000" stroke-width="0.75" stroke-miterlimit="10"/>
<path d="M998.67 91.7113C998.67 92.468 998.065 93.0733 997.308 93.0733H985.653C984.896 93.0733 984.291 92.468 984.291 91.7113C984.291 90.9546 984.896 90.3492 985.653 90.3492H997.308C998.065 90.3492 998.67 90.9546 998.67 91.7113Z" stroke="#000000" stroke-width="0.75" stroke-miterlimit="10"/>
<path d="M996.097 90.3492V70.9778H992.767L987.318 90.3492" stroke="#000000" stroke-width="0.75" stroke-miterlimit="10"/>
<path d="M1015.32 91.7113C1015.32 92.468 1014.71 93.0733 1013.96 93.0733H1002.3C1001.55 93.0733 1000.94 92.468 1000.94 91.7113C1000.94 90.9546 1001.55 90.3492 1002.3 90.3492H1013.96C1014.71 90.3492 1015.32 90.9546 1015.32 91.7113Z" stroke="#000000" stroke-width="0.75" stroke-miterlimit="10"/>
<path d="M1012.75 90.3492V70.9778H1009.57L1003.97 90.3492" stroke="#000000" stroke-width="0.75" stroke-miterlimit="10"/>
<path d="M964.765 93.0733C964.765 91.2573 967.943 89.7439 971.727 89.7439C975.663 89.7439 978.69 91.2573 978.69 93.0733" stroke="#000000" stroke-width="0.75" stroke-miterlimit="10"/>
<path d="M975.966 86.8685H967.338V90.5006H975.966V86.8685Z" stroke="#000000" stroke-width="0.75" stroke-miterlimit="10"/>
<path d="M969.003 86.8685L971.728 84.1443L974.452 86.8685" stroke="#000000" stroke-width="0.75" stroke-miterlimit="10"/>
<path d="M971.728 84.1443V81.5716" stroke="#000000" stroke-width="0.75" stroke-miterlimit="10"/>
<path d="M968.246 81.5716H975.058" stroke="#000000" stroke-width="0.75" stroke-miterlimit="10"/>
<path d="M959.164 106.845H955.683L950.688 111.839V115.471" stroke="#000000" stroke-width="0.75" stroke-miterlimit="10"/>
<path d="M959.164 115.623H945.087L948.266 118.347V129.395" stroke="#000000" stroke-width="0.75" stroke-miterlimit="10"/>
<path d="M948.266 118.347H959.164" stroke="#000000" stroke-width="0.75" stroke-miterlimit="10"/>
<path d="M948.266 123.795L940.698 126.973V129.395" stroke="#000000" stroke-width="0.75" stroke-miterlimit="10"/>
<path d="M959.315 109.721H952.807" stroke="#000000" stroke-width="0.75" stroke-miterlimit="10"/>
<path d="M923.14 129.243V95.9488" stroke="#000000" stroke-width="0.75" stroke-miterlimit="10"/>
<path d="M912.695 129.243V119.255" stroke="#000000" stroke-width="0.75" stroke-miterlimit="10"/>
<path d="M923.291 95.7974C928.056 95.7974 931.919 91.9353 931.919 87.1711C931.919 82.4069 928.056 78.5448 923.291 78.5448C918.526 78.5448 914.663 82.4069 914.663 87.1711C914.663 91.9353 918.526 95.7974 923.291 95.7974Z" stroke="#000000" stroke-width="0.75" stroke-miterlimit="10"/>
<path d="M923.291 111.083C925.966 111.083 928.135 108.914 928.135 106.24C928.135 103.565 925.966 101.397 923.291 101.397C920.616 101.397 918.447 103.565 918.447 106.24C918.447 108.914 920.616 111.083 923.291 111.083Z" stroke="#000000" stroke-width="0.75" stroke-miterlimit="10"/>
<path d="M1023.65 54.6333C1024.4 54.6333 1025.01 54.0235 1025.01 53.2712C1025.01 52.519 1024.4 51.9092 1023.65 51.9092C1022.89 51.9092 1022.28 52.519 1022.28 53.2712C1022.28 54.0235 1022.89 54.6333 1023.65 54.6333Z" stroke="#000000" stroke-width="0.75" stroke-miterlimit="10"/>
<path d="M1011.69 68.2537C1012.11 68.2537 1012.44 67.915 1012.44 67.4971C1012.44 67.0791 1012.11 66.7404 1011.69 66.7404C1011.27 66.7404 1010.93 67.0791 1010.93 67.4971C1010.93 67.915 1011.27 68.2537 1011.69 68.2537Z" stroke="#000000" stroke-width="0.75" stroke-miterlimit="10"/>
<path d="M995.946 69.3131C996.364 69.3131 996.703 68.9743 996.703 68.5564C996.703 68.1385 996.364 67.7997 995.946 67.7997C995.528 67.7997 995.189 68.1385 995.189 68.5564C995.189 68.9743 995.528 69.3131 995.946 69.3131Z" stroke="#000000" stroke-width="0.75" stroke-miterlimit="10"/>
<path d="M1003.06 60.0815C1001.7 60.0815 1000.64 60.9895 1000.34 62.2002C999.276 62.2002 998.368 63.1083 998.368 64.1676C998.368 65.227 999.276 66.135 1000.34 66.135C1001.09 66.135 1001.7 65.8324 1002 65.227C1002.3 65.3783 1002.61 65.3783 1003.06 65.3783C1004.57 65.3783 1005.78 64.1676 1005.78 62.6542C1005.78 61.2922 1004.57 60.0815 1003.06 60.0815Z" stroke="#000000" stroke-width="0.75" stroke-miterlimit="10"/>
<path d="M1027.28 50.8498C1027.7 50.8498 1028.04 50.511 1028.04 50.0931C1028.04 49.6752 1027.7 49.3364 1027.28 49.3364C1026.86 49.3364 1026.52 49.6752 1026.52 50.0931C1026.52 50.511 1026.86 50.8498 1027.28 50.8498Z" stroke="#000000" stroke-width="0.75" stroke-miterlimit="10"/>
<path d="M1021.68 57.8114C1021.68 55.9953 1020.16 54.4819 1018.35 54.4819C1016.53 54.4819 1015.17 55.844 1015.02 57.5087C1014.87 57.5087 1014.56 57.3574 1014.26 57.3574C1012.9 57.3574 1011.84 58.4167 1011.84 59.7788C1011.84 60.0815 1011.84 60.3841 1011.99 60.5355C1011.23 60.8382 1010.78 61.5949 1010.78 62.3516C1010.78 63.4109 1011.69 64.4703 1012.9 64.4703C1013.81 64.4703 1014.41 64.0163 1014.87 63.2596C1015.32 64.1676 1016.38 64.773 1017.44 64.773C1019.1 64.773 1020.32 63.4109 1020.32 61.8975C1020.32 61.4435 1020.16 61.1408 1020.01 60.6868C1021.07 60.0815 1021.68 59.0221 1021.68 57.8114Z" stroke="#000000" stroke-width="0.75" stroke-miterlimit="10"/>
<path d="M912.695 119.558C915.621 119.558 917.993 117.186 917.993 114.261C917.993 111.335 915.621 108.964 912.695 108.964C909.769 108.964 907.397 111.335 907.397 114.261C907.397 117.186 909.769 119.558 912.695 119.558Z" stroke="#000000" stroke-width="0.75" stroke-miterlimit="10"/>
<path d="M939.487 129.243V113.05" stroke="#000000" stroke-width="0.75" stroke-miterlimit="10"/>
<path d="M939.487 113.504C944.252 113.504 948.115 109.642 948.115 104.878C948.115 100.114 944.252 96.2515 939.487 96.2515C934.722 96.2515 930.859 100.114 930.859 104.878C930.859 109.642 934.722 113.504 939.487 113.504Z" stroke="#000000" stroke-width="0.75" stroke-miterlimit="10"/>
<path d="M874.703 124.4V129.395" stroke="#000000" stroke-width="0.75" stroke-miterlimit="10"/>
<path d="M1128.09 124.854H1116.89V120.617H1115.22V118.65H1113.1V114.261L1083.59 101.548L1070.57 114.563H1074.65V118.801H1072.69V120.768H1070.27V123.492H1053.01V129.395H1150.03L1128.09 124.854Z" stroke="#000000" stroke-width="0.75" stroke-miterlimit="10"/>
<path d="M1081.32 111.839H1078.89V119.255H1081.32V111.839Z" stroke="#000000" stroke-width="0.75" stroke-miterlimit="10"/>
<path d="M1086.31 111.839H1083.89V119.255H1086.31V111.839Z" stroke="#000000" stroke-width="0.75" stroke-miterlimit="10"/>
<path d="M1091.15 111.839H1088.73V119.255H1091.15V111.839Z" stroke="#000000" stroke-width="0.75" stroke-miterlimit="10"/>
<path d="M1095.39 115.32H1107.35" stroke="#000000" stroke-width="0.75" stroke-miterlimit="10"/>
<path d="M1095.39 117.136H1107.35" stroke="#000000" stroke-width="0.75" stroke-miterlimit="10"/>
<path d="M1095.39 118.801H1107.35" stroke="#000000" stroke-width="0.75" stroke-miterlimit="10"/>
<path d="M1095.39 120.466H1107.35" stroke="#000000" stroke-width="0.75" stroke-miterlimit="10"/>
<path d="M1095.39 122.282H1107.35" stroke="#000000" stroke-width="0.75" stroke-miterlimit="10"/>
<path d="M1095.39 123.946H1107.35" stroke="#000000" stroke-width="0.75" stroke-miterlimit="10"/>
<path d="M1095.39 125.611H1107.35" stroke="#000000" stroke-width="0.75" stroke-miterlimit="10"/>
<path d="M900.738 62.0489H878.033V126.368H900.738V62.0489Z" stroke="#000000" stroke-width="0.75" stroke-miterlimit="10"/>
<path d="M900.738 125.46H878.033V129.395H900.738V125.46Z" stroke="#000000" stroke-width="0.75" stroke-miterlimit="10"/>
<path d="M890.899 87.3224H887.872V122.433H890.899V87.3224Z" stroke="#000000" stroke-width="0.75" stroke-miterlimit="10"/>
<path d="M892.413 81.4202H886.51V86.4144H892.413V81.4202Z" stroke="#000000" stroke-width="0.75" stroke-miterlimit="10"/>
<path d="M894.078 64.7729H884.845V73.3993H894.078V64.7729Z" stroke="#000000" stroke-width="0.75" stroke-miterlimit="10"/>
<path d="M897.105 75.972H881.969V77.3341H897.105V75.972Z" stroke="#000000" stroke-width="0.75" stroke-miterlimit="10"/>
<path d="M870.919 61.1408L889.385 47.369L908.003 61.1408H870.919Z" stroke="#000000" stroke-width="0.75" stroke-miterlimit="10"/>
<path d="M976.117 129.395H1069.05" stroke="#000000" stroke-width="0.75" stroke-miterlimit="10"/>
<path d="M1046.5 108.964L1059.22 102.608V129.243H1046.5V108.964Z" stroke="#000000" stroke-width="0.75" stroke-miterlimit="10"/>
<path d="M31.7539 129.243V102.456" stroke="#000000" stroke-width="0.75" stroke-miterlimit="10"/>
<path d="M24.7915 129.243V122.13" stroke="#000000" stroke-width="0.75" stroke-miterlimit="10"/>
<path d="M31.9056 103.213C35.7511 103.213 38.8684 100.096 38.8684 96.2514C38.8684 92.4067 35.7511 89.2899 31.9056 89.2899C28.0602 89.2899 24.9429 92.4067 24.9429 96.2514C24.9429 100.096 28.0602 103.213 31.9056 103.213Z" stroke="#000000" stroke-width="0.75" stroke-miterlimit="10"/>
<path d="M24.7914 122.282C27.1321 122.282 29.0296 120.385 29.0296 118.044C29.0296 115.704 27.1321 113.807 24.7914 113.807C22.4507 113.807 20.5532 115.704 20.5532 118.044C20.5532 120.385 22.4507 122.282 24.7914 122.282Z" stroke="#000000" stroke-width="0.75" stroke-miterlimit="10"/>
<path d="M46.4365 129.243V117.136" stroke="#000000" stroke-width="0.75" stroke-miterlimit="10"/>
<path d="M46.4364 117.59C50.2818 117.59 53.3992 114.473 53.3992 110.629C53.3992 106.784 50.2818 103.667 46.4364 103.667C42.591 103.667 39.4736 106.784 39.4736 110.629C39.4736 114.473 42.591 117.59 46.4364 117.59Z" stroke="#000000" stroke-width="0.75" stroke-miterlimit="10"/>
<path d="M-2 129.395H42.0471H157.538L167.074 122.584H172.826V117.59H177.821V107.299H167.982L199.466 75.8207L271.364 106.542V117.288H276.662V122.13H280.749V129.395H287.712V108.964L298.61 104.121V67.7998L313.898 61.5949L329.64 69.7672L329.337 112.596H317.833L317.682 45.7043H333.726V55.9953H324.19V24.3655L341.295 15.5879V48.2771H365.21V115.925H355.826V69.3131L369.751 63.7136L380.347 69.7672V81.2689H385.796L390.488 84.5984V116.682H376.714V97.6135L402.597 86.4144L410.317 94.1327V129.395H347.5V36.3213H361.729V9.08032L377.773 0.605347L393.213 10.291L394.272 68.2538L381.709 58.7194V27.241L401.992 13.7718L420.004 22.5495V129.395H534.587V115.925L529.592 110.931H491.448V104.121H464.959V108.51H447.401V122.736H433.324V51.1525L453.758 41.1641V71.7346L475.858 77.6368V120.163H504.92V82.3283L512.488 70.8265L519.299 75.8207V96.8568H568.947L578.029 103.364V120.314H551.237V87.1711L562.741 79.6042L584.083 90.9546V99.2782L590.138 102.305V129.395H539.582V59.4761L559.108 54.3306H562.287V72.9453L556.081 75.2154H551.237V25.2736L573.942 16.6473L584.234 21.4901L583.78 60.5355H595.587L595.435 81.8743L618.291 86.5658V129.395H605.123V60.9895L615.567 56.752L626.162 62.2002V129.395H636.455V109.569V99.8836H709.867L692.157 90.9546V86.5658H644.629V90.9546L623.438 99.8836H644.629" stroke="#000000" stroke-width="0.75" stroke-miterlimit="10"/>
<path d="M194.32 100.64H188.265V118.65H194.32V100.64Z" stroke="#000000" stroke-width="0.75" stroke-miterlimit="10"/>
<path d="M206.278 100.64H200.223V118.65H206.278V100.64Z" stroke="#000000" stroke-width="0.75" stroke-miterlimit="10"/>
<path d="M218.235 100.64H212.181V118.65H218.235V100.64Z" stroke="#000000" stroke-width="0.75" stroke-miterlimit="10"/>
<path d="M644.629 90.9546V129.395H649.473V111.991H655.376V129.395H662.339V107.148H674.448V129.395H681.41V111.991H687.465V129.395H692.157V90.9546" stroke="#000000" stroke-width="0.75" stroke-miterlimit="10"/>
<path d="M778.435 129.395V120.163L788.728 112.747V129.395H763.601V107.299L746.649 90.3492L729.847 107.148V129.395H738.929L739.232 91.7113L729.393 85.2037V73.0966L712.289 51.6065L701.996 56.4493V129.395H711.532V116.379H771.775V106.996L784.641 94.8894L799.021 111.234V129.395H830.504V111.083L827.477 108.056L825.207 110.477V118.347H843.825V110.326L831.11 91.2573L810.373 107.299V124.098H874.551V119.255L858.204 108.964L847.306 119.86L853.815 129.395H1185" stroke="#000000" stroke-width="0.75" stroke-miterlimit="10"/>
<path d="M312.838 129.395H338.419V106.391L321.769 98.9755L307.843 105.332L307.994 129.395H188.265V100.338" stroke="#000000" stroke-width="0.75" stroke-miterlimit="10"/>
<path d="M138.92 129.395V122.887H149.97L154.965 117.893V110.931L142.704 98.6729H138.012L132.866 93.5273L126.054 100.338L121.967 104.424V111.839L128.022 117.742H139.071V112.445L134.833 108.056V129.395" stroke="#000000" stroke-width="0.75" stroke-miterlimit="10"/>
<path d="M92.6027 129.395L82.9154 121.374V115.471H117.881L111.523 121.676H72.4713L63.6921 115.169L48.8584 129.395" stroke="#000000" stroke-width="0.75" stroke-miterlimit="10"/>
<path d="M218.235 118.65H244.27V80.8149H246.54V68.2538L231.101 47.2177L213.089 68.2538H211.727V80.8149H233.674V85.3551H221.565" stroke="#000000" stroke-width="0.75" stroke-miterlimit="10"/>
<path d="M305.27 71.4319H302.394V74.3073H305.27V71.4319Z" stroke="#000000" stroke-width="0.75" stroke-miterlimit="10"/>
<path d="M305.27 82.631H302.394V85.5064H305.27V82.631Z" stroke="#000000" stroke-width="0.75" stroke-miterlimit="10"/>
<path d="M307.389 79.1501H311.93" stroke="#000000" stroke-width="0.75" stroke-miterlimit="10"/>
<path d="M334.635 26.4843H331.759V29.3597H334.635V26.4843Z" stroke="#000000" stroke-width="0.75" stroke-miterlimit="10"/>
<path d="M334.635 33.8999H331.759V36.7753H334.635V33.8999Z" stroke="#000000" stroke-width="0.75" stroke-miterlimit="10"/>
<path d="M327.066 30.7217H324.19V33.5972H327.066V30.7217Z" stroke="#000000" stroke-width="0.75" stroke-miterlimit="10"/>
<path d="M336.754 34.0512H341.295" stroke="#000000" stroke-width="0.75" stroke-miterlimit="10"/>
<path d="M369.902 21.4901H367.026V24.3655H369.902V21.4901Z" stroke="#000000" stroke-width="0.75" stroke-miterlimit="10"/>
<path d="M369.902 12.5611H367.026V15.4365H369.902V12.5611Z" stroke="#000000" stroke-width="0.75" stroke-miterlimit="10"/>
<path d="M384.282 8.02094H381.406V9.08031H384.282V8.02094Z" stroke="#000000" stroke-width="0.75" stroke-miterlimit="10"/>
<path d="M392.607 18.4633H389.731V19.5227H392.607V18.4633Z" stroke="#000000" stroke-width="0.75" stroke-miterlimit="10"/>
<path d="M413.344 40.5588H410.468V46.1583H413.344V40.5588Z" stroke="#000000" stroke-width="0.75" stroke-miterlimit="10"/>
<path d="M413.344 36.624H410.468V38.44H413.344V36.624Z" stroke="#000000" stroke-width="0.75" stroke-miterlimit="10"/>
<path d="M441.801 64.4703H438.925V70.0698H441.801V64.4703Z" stroke="#000000" stroke-width="0.75" stroke-miterlimit="10"/>
<path d="M441.801 60.5355H438.925V62.3516H441.801V60.5355Z" stroke="#000000" stroke-width="0.75" stroke-miterlimit="10"/>
<path d="M458.905 82.1769H456.029V87.7765H458.905V82.1769Z" stroke="#000000" stroke-width="0.75" stroke-miterlimit="10"/>
<path d="M458.905 78.2421H456.029V80.0582H458.905V78.2421Z" stroke="#000000" stroke-width="0.75" stroke-miterlimit="10"/>
<path d="M464.657 85.9604H461.781V87.7765H464.657V85.9604Z" stroke="#000000" stroke-width="0.75" stroke-miterlimit="10"/>
<path d="M469.197 80.2095H467.835V91.7113H469.197V80.2095Z" stroke="#000000" stroke-width="0.75" stroke-miterlimit="10"/>
<path d="M464.657 91.5599H461.781V93.376H464.657V91.5599Z" stroke="#000000" stroke-width="0.75" stroke-miterlimit="10"/>
<path d="M515.364 85.9604H512.488V87.7765H515.364V85.9604Z" stroke="#000000" stroke-width="0.75" stroke-miterlimit="10"/>
<path d="M546.696 65.9837H543.82V67.7998H546.696V65.9837Z" stroke="#000000" stroke-width="0.75" stroke-miterlimit="10"/>
<path d="M546.696 71.7346H543.82V73.5506H546.696V71.7346Z" stroke="#000000" stroke-width="0.75" stroke-miterlimit="10"/>
<path d="M558.957 33.8999H555.626V36.17H558.957V33.8999Z" stroke="#000000" stroke-width="0.75" stroke-miterlimit="10"/>
<path d="M566.525 29.6624H563.195V31.9325H566.525V29.6624Z" stroke="#000000" stroke-width="0.75" stroke-miterlimit="10"/>
<path d="M564.86 43.2829H561.984V45.099H564.86V43.2829Z" stroke="#000000" stroke-width="0.75" stroke-miterlimit="10"/>
<path d="M564.86 88.3818H560.167V90.1979H564.86V88.3818Z" stroke="#000000" stroke-width="0.75" stroke-miterlimit="10"/>
<path d="M580.299 91.106H575.607V92.922H580.299V91.106Z" stroke="#000000" stroke-width="0.75" stroke-miterlimit="10"/>
<path d="M558.503 47.8231H555.626V51.4552H558.503V47.8231Z" stroke="#000000" stroke-width="0.75" stroke-miterlimit="10"/>
<path d="M581.207 34.3539H577.877V36.624H581.207V34.3539Z" stroke="#000000" stroke-width="0.75" stroke-miterlimit="10"/>
<path d="M576.969 26.6356H573.639V28.9057H576.969V26.6356Z" stroke="#000000" stroke-width="0.75" stroke-miterlimit="10"/>
<path d="M612.691 63.8649H610.875V67.7997H612.691V63.8649Z" stroke="#000000" stroke-width="0.75" stroke-miterlimit="10"/>
<path d="M612.691 71.2805H610.875V75.2153H612.691V71.2805Z" stroke="#000000" stroke-width="0.75" stroke-miterlimit="10"/>
<path d="M708.353 77.7881H706.537V81.7229H708.353V77.7881Z" stroke="#000000" stroke-width="0.75" stroke-miterlimit="10"/>
<path d="M708.353 85.2037H706.537V89.1385H708.353V85.2037Z" stroke="#000000" stroke-width="0.75" stroke-miterlimit="10"/>
<path d="M731.058 92.6193H729.242V96.5541H731.058V92.6193Z" stroke="#000000" stroke-width="0.75" stroke-miterlimit="10"/>
<path d="M751.643 108.056H749.827V111.991H751.643V108.056Z" stroke="#000000" stroke-width="0.75" stroke-miterlimit="10"/>
<path d="M779.192 108.964H777.375V112.899H779.192V108.964Z" stroke="#000000" stroke-width="0.75" stroke-miterlimit="10"/>
<path d="M795.691 112.293H791.755V114.109H795.691V112.293Z" stroke="#000000" stroke-width="0.75" stroke-miterlimit="10"/>
<path d="M820.363 107.148H816.428V108.964H820.363V107.148Z" stroke="#000000" stroke-width="0.75" stroke-miterlimit="10"/>
<path d="M820.363 111.839H816.428V113.655H820.363V111.839Z" stroke="#000000" stroke-width="0.75" stroke-miterlimit="10"/>
<path d="M820.363 116.38H816.428V118.196H820.363V116.38Z" stroke="#000000" stroke-width="0.75" stroke-miterlimit="10"/>
<path d="M795.691 116.077H791.755V117.893H795.691V116.077Z" stroke="#000000" stroke-width="0.75" stroke-miterlimit="10"/>
<path d="M795.691 120.012H791.755V121.828H795.691V120.012Z" stroke="#000000" stroke-width="0.75" stroke-miterlimit="10"/>
<path d="M795.691 123.795H791.755V125.611H795.691V123.795Z" stroke="#000000" stroke-width="0.75" stroke-miterlimit="10"/>
<path d="M751.643 120.768H749.827V124.703H751.643V120.768Z" stroke="#000000" stroke-width="0.75" stroke-miterlimit="10"/>
<path d="M713.046 64.4703H711.229V68.4051H713.046V64.4703Z" stroke="#000000" stroke-width="0.75" stroke-miterlimit="10"/>
<path d="M713.046 71.8859H711.229V75.8207H713.046V71.8859Z" stroke="#000000" stroke-width="0.75" stroke-miterlimit="10"/>
<path d="M612.691 90.0466H610.875V93.9814H612.691V90.0466Z" stroke="#000000" stroke-width="0.75" stroke-miterlimit="10"/>
<path d="M612.691 97.4622H610.875V101.397H612.691V97.4622Z" stroke="#000000" stroke-width="0.75" stroke-miterlimit="10"/>
<path d="M568.19 102.002H566.374V105.937H568.19V102.002Z" stroke="#000000" stroke-width="0.75" stroke-miterlimit="10"/>
<path d="M568.19 109.418H566.374V113.353H568.19V109.418Z" stroke="#000000" stroke-width="0.75" stroke-miterlimit="10"/>
<path d="M612.691 108.207H610.875V112.142H612.691V108.207Z" stroke="#000000" stroke-width="0.75" stroke-miterlimit="10"/>
<path d="M577.423 46.461H574.547V51.7579H577.423V46.461Z" stroke="#000000" stroke-width="0.75" stroke-miterlimit="10"/>
<path d="M577.423 59.4761H574.547V64.773H577.423V59.4761Z" stroke="#000000" stroke-width="0.75" stroke-miterlimit="10"/>
<path d="M577.423 67.0431H574.547V72.34H577.423V67.0431Z" stroke="#000000" stroke-width="0.75" stroke-miterlimit="10"/>
<path d="M572.731 51.1525H569.855V56.4493H572.731V51.1525Z" stroke="#000000" stroke-width="0.75" stroke-miterlimit="10"/>
<path d="M546.696 77.4854H543.82V79.3015H546.696V77.4854Z" stroke="#000000" stroke-width="0.75" stroke-miterlimit="10"/>
<path d="M546.696 83.085H543.82V84.901H546.696V83.085Z" stroke="#000000" stroke-width="0.75" stroke-miterlimit="10"/>
<path d="M515.364 91.5599H512.488V93.376H515.364V91.5599Z" stroke="#000000" stroke-width="0.75" stroke-miterlimit="10"/>
<path d="M458.905 101.094H456.029V108.661H458.905V101.094Z" stroke="#000000" stroke-width="0.75" stroke-miterlimit="10"/>
<path d="M408.349 25.1223H405.473V30.7218H408.349V25.1223Z" stroke="#000000" stroke-width="0.75" stroke-miterlimit="10"/>
<path d="M408.349 21.1874H405.473V23.0035H408.349V21.1874Z" stroke="#000000" stroke-width="0.75" stroke-miterlimit="10"/>
<path d="M408.349 50.5471H405.473V52.3632H408.349V50.5471Z" stroke="#000000" stroke-width="0.75" stroke-miterlimit="10"/>
<path d="M376.562 11.3504H374.897V20.8847H376.562V11.3504Z" stroke="#000000" stroke-width="0.75" stroke-miterlimit="10"/>
<path d="M369.902 25.2736H367.026V28.149H369.902V25.2736Z" stroke="#000000" stroke-width="0.75" stroke-miterlimit="10"/>
<path d="M369.902 31.9325H367.026V34.8079H369.902V31.9325Z" stroke="#000000" stroke-width="0.75" stroke-miterlimit="10"/>
<path d="M372.173 70.9778H369.297V73.8533H372.173V70.9778Z" stroke="#000000" stroke-width="0.75" stroke-miterlimit="10"/>
<path d="M372.173 77.4854H369.297V80.3608H372.173V77.4854Z" stroke="#000000" stroke-width="0.75" stroke-miterlimit="10"/>
<path d="M384.131 105.937H381.255V108.813H384.131V105.937Z" stroke="#000000" stroke-width="0.75" stroke-miterlimit="10"/>
<path d="M398.208 95.0407H395.332V103.364H398.208V95.0407Z" stroke="#000000" stroke-width="0.75" stroke-miterlimit="10"/>
<path d="M410.165 95.0407H402.446V97.1594H410.165V95.0407Z" stroke="#000000" stroke-width="0.75" stroke-miterlimit="10"/>
<path d="M410.165 99.5809H402.446V101.7H410.165V99.5809Z" stroke="#000000" stroke-width="0.75" stroke-miterlimit="10"/>
<path d="M410.165 104.121H402.446V106.24H410.165V104.121Z" stroke="#000000" stroke-width="0.75" stroke-miterlimit="10"/>
<path d="M410.165 108.661H402.446V110.78H410.165V108.661Z" stroke="#000000" stroke-width="0.75" stroke-miterlimit="10"/>
<path d="M372.173 87.9278H369.297V95.1921H372.173V87.9278Z" stroke="#000000" stroke-width="0.75" stroke-miterlimit="10"/>
<path d="M376.865 29.9651H381.255" stroke="#000000" stroke-width="0.75" stroke-miterlimit="10"/>
<path d="M376.865 34.2026H381.255" stroke="#000000" stroke-width="0.75" stroke-miterlimit="10"/>
<path d="M376.865 38.4401H381.255" stroke="#000000" stroke-width="0.75" stroke-miterlimit="10"/>
<path d="M376.865 42.6776H381.255" stroke="#000000" stroke-width="0.75" stroke-miterlimit="10"/>
<path d="M376.865 46.915H381.255" stroke="#000000" stroke-width="0.75" stroke-miterlimit="10"/>
<path d="M376.865 51.1525H381.255" stroke="#000000" stroke-width="0.75" stroke-miterlimit="10"/>
<path d="M376.865 55.5413H381.255" stroke="#000000" stroke-width="0.75" stroke-miterlimit="10"/>
<path d="M336.754 39.1967H341.295" stroke="#000000" stroke-width="0.75" stroke-miterlimit="10"/>
<path d="M336.754 44.1909H341.295" stroke="#000000" stroke-width="0.75" stroke-miterlimit="10"/>
<path d="M814.611 124.249V129.395" stroke="#000000" stroke-width="0.75" stroke-miterlimit="10"/>
<path d="M817.336 124.249V129.395" stroke="#000000" stroke-width="0.75" stroke-miterlimit="10"/>
<path d="M820.061 124.249V129.395" stroke="#000000" stroke-width="0.75" stroke-miterlimit="10"/>
<path d="M822.785 124.249V129.395" stroke="#000000" stroke-width="0.75" stroke-miterlimit="10"/>
<path d="M825.509 124.249V129.395" stroke="#000000" stroke-width="0.75" stroke-miterlimit="10"/>
<path d="M855.631 124.249V129.395" stroke="#000000" stroke-width="0.75" stroke-miterlimit="10"/>
<path d="M860.323 124.249V129.395" stroke="#000000" stroke-width="0.75" stroke-miterlimit="10"/>
<path d="M865.016 124.249V129.395" stroke="#000000" stroke-width="0.75" stroke-miterlimit="10"/>
<path d="M869.708 124.249V129.395" stroke="#000000" stroke-width="0.75" stroke-miterlimit="10"/>
<path d="M828.234 124.249V129.395" stroke="#000000" stroke-width="0.75" stroke-miterlimit="10"/>
<path d="M558.049 100.186H551.237V101.7H558.049V100.186Z" stroke="#000000" stroke-width="0.75" stroke-miterlimit="10"/>
<path d="M558.049 103.818H551.237V105.332H558.049V103.818Z" stroke="#000000" stroke-width="0.75" stroke-miterlimit="10"/>
<path d="M558.049 107.451H551.237V108.964H558.049V107.451Z" stroke="#000000" stroke-width="0.75" stroke-miterlimit="10"/>
<path d="M558.049 111.083H551.237V112.596H558.049V111.083Z" stroke="#000000" stroke-width="0.75" stroke-miterlimit="10"/>
<path d="M558.049 114.715H551.237V116.228H558.049V114.715Z" stroke="#000000" stroke-width="0.75" stroke-miterlimit="10"/>
<path d="M420.004 77.1827L433.324 72.9453" stroke="#000000" stroke-width="0.75" stroke-miterlimit="10"/>
<path d="M420.004 84.2957L433.324 80.0582" stroke="#000000" stroke-width="0.75" stroke-miterlimit="10"/>
<path d="M420.004 91.56L433.324 87.1711" stroke="#000000" stroke-width="0.75" stroke-miterlimit="10"/>
<path d="M420.004 98.6728L433.324 94.284" stroke="#000000" stroke-width="0.75" stroke-miterlimit="10"/>
<path d="M420.004 105.786L433.324 101.548" stroke="#000000" stroke-width="0.75" stroke-miterlimit="10"/>
<path d="M420.004 112.899L433.324 108.661" stroke="#000000" stroke-width="0.75" stroke-miterlimit="10"/>
<path d="M420.004 120.163L433.324 115.774" stroke="#000000" stroke-width="0.75" stroke-miterlimit="10"/>
<path d="M479.491 129.546V94.8894" stroke="#000000" stroke-width="0.75" stroke-miterlimit="10"/>
<path d="M470.863 129.546V114.866" stroke="#000000" stroke-width="0.75" stroke-miterlimit="10"/>
<path d="M479.642 95.6461C483.571 95.6461 486.756 92.4615 486.756 88.5332C486.756 84.6048 483.571 81.4202 479.642 81.4202C475.713 81.4202 472.528 84.6048 472.528 88.5332C472.528 92.4615 475.713 95.6461 479.642 95.6461Z" stroke="#000000" stroke-width="0.75" stroke-miterlimit="10"/>
<path d="M479.642 108.359C481.899 108.359 483.729 106.529 483.729 104.272C483.729 102.016 481.899 100.186 479.642 100.186C477.385 100.186 475.555 102.016 475.555 104.272C475.555 106.529 477.385 108.359 479.642 108.359Z" stroke="#000000" stroke-width="0.75" stroke-miterlimit="10"/>
<path d="M470.863 115.169C473.287 115.169 475.252 113.204 475.252 110.78C475.252 108.356 473.287 106.391 470.863 106.391C468.438 106.391 466.473 108.356 466.473 110.78C466.473 113.204 468.438 115.169 470.863 115.169Z" stroke="#000000" stroke-width="0.75" stroke-miterlimit="10"/>
<path d="M492.962 129.546V109.872" stroke="#000000" stroke-width="0.75" stroke-miterlimit="10"/>
<path d="M492.962 110.326C496.891 110.326 500.076 107.141 500.076 103.213C500.076 99.2847 496.891 96.1001 492.962 96.1001C489.033 96.1001 485.848 99.2847 485.848 103.213C485.848 107.141 489.033 110.326 492.962 110.326Z"  stroke="#000000" stroke-width="0.75" stroke-miterlimit="10"/>
</g>
</svg>
