<?xml version="1.0" encoding="utf-8"?>
<!-- Generator: Adobe Illustrator 21.1.0, SVG Export Plug-In . SVG Version: 6.00 Build 0)  -->
<svg version="1.1" id="Layer_1" xmlns="http://www.w3.org/2000/svg" xmlns:xlink="http://www.w3.org/1999/xlink" x="0px" y="0px"
	 viewBox="0 0 1000 1000" style="enable-background:new 0 0 1000 1000;" xml:space="preserve">
<style type="text/css">
	.st0{fill:#FFFFFF;}
</style>
<g>
	<g>
		<g>
			<g>
				<path class="st0" d="M899.8,476.6V589c0,34-15.9,55.1-50.6,55.1h-52.2v-223h52.2C883.8,421.1,899.8,442.1,899.8,476.6z
					 M875.3,590V475.3c0-20.4-8.6-31.5-26.8-31.5h-26.8v177.8h27.1C866.6,621.5,875.3,610.4,875.3,590z"/>
			</g>
		</g>
		<g>
			<polygon class="st0" points="779.4,621.5 779.4,644.1 690.9,644.1 690.9,374.6 715.7,393.3 715.7,621.5 			"/>
		</g>
		<polygon class="st0" points="654.8,348.3 641.9,357.4 641.9,644.9 654.8,651.7 666.8,644.9 666.8,357.4 		"/>
		<g>
			<path class="st0" d="M617.4,374.6v215.7c0,33.7-15.6,56.4-50,56.4c-34,0-49.7-22.6-49.7-56.4V421.1h24.5v170.4
				c0,20.1,8,32.2,26.1,32.2c17.8,0,25.8-12.1,25.8-32.2V393.3L617.4,374.6z"/>
		</g>
		<g>
			<g>
				<path class="st0" d="M496,573.1v18.8c0,33.4-16.2,52.2-51,52.2h-51.3v-223h50c34.7,0,48.4,16.6,48.4,49.4V481
					c0,23.6-6.7,38.2-26.1,44.3C487.7,531.3,496,548.5,496,573.1z M471.5,591.2v-19.8c0-24.9-9.9-33.1-31.2-33.1h-21.7v83.2H445
					C463.2,621.5,471.5,611.9,471.5,591.2z M467.7,486.1V473c0-19.7-6.7-29.3-24.6-29.3h-24.5v72h19.1
					C457.5,515.8,467.7,509.4,467.7,486.1z"/>
			</g>
		</g>
		<g>
			<g>
				<path class="st0" d="M335.5,588.7V476.9c0-29.7-12.4-52.6-44.6-52.6h-42.1v216.6h42.4C323.4,640.9,335.5,618,335.5,588.7z
					 M338.6,476.9v111.8c0,30.9-13.7,55.4-47.5,55.4h-45.5v-223h45.2C325,421.1,338.6,445.7,338.6,476.9z"/>
			</g>
			<g>
				<path class="st0" d="M291.2,645.5h-45.5c-0.8,0-1.4-0.6-1.4-1.4v-223c0-0.8,0.6-1.4,1.4-1.4h45.2c31.2,0,49.1,20.8,49.1,57.2
					v111.8C340,624.8,322.2,645.5,291.2,645.5z M247.1,642.7h44.1c29.3,0,46-19.7,46-54V476.9c0-20.3-6-54.4-46.4-54.4h-43.8V642.7z
					 M291.2,642.3h-42.4c-0.8,0-1.4-0.6-1.4-1.4V424.3c0-0.8,0.6-1.4,1.4-1.4h42.1c29.6,0,46,19.2,46,54v111.8
					C336.9,623.3,320.6,642.3,291.2,642.3z M250.2,639.5h41c37.3,0,42.9-31.9,42.9-50.8V476.9c0-19.1-5.6-51.2-43.2-51.2h-40.7
					V639.5z"/>
			</g>
		</g>
		<g>
			<g>
				<path class="st0" d="M202,586.8l-41.7-161.8l-40.8,161.8H202z M162.5,420.8l57.6,223.3H217l-14-54.1h-84.4l-13.7,54.1h-3.2
					L158,420.8H162.5z"/>
			</g>
			<g>
				<path class="st0" d="M220.2,645.5C220.2,645.5,220.2,645.5,220.2,645.5H217c-0.6,0-1.2-0.4-1.4-1l-13.7-53.1h-82.2l-13.4,53.1
					c-0.2,0.6-0.7,1.1-1.4,1.1h-3.2c-0.4,0-0.8-0.2-1.1-0.5c-0.3-0.3-0.4-0.8-0.3-1.2l56.4-223.3c0.2-0.6,0.7-1.1,1.4-1.1h4.5
					c0.6,0,1.2,0.4,1.4,1.1l57.5,222.9c0.1,0.2,0.2,0.5,0.2,0.8C221.6,644.9,221,645.5,220.2,645.5z M218,642.7h0.3l-56.9-220.5
					h-2.3l-55.7,220.5h0.3l13.4-53c0.2-0.6,0.7-1.1,1.4-1.1h84.4c0.6,0,1.2,0.4,1.4,1L218,642.7z M202,588.2h-82.5
					c-0.4,0-0.8-0.2-1.1-0.5c-0.3-0.3-0.4-0.8-0.2-1.2l40.8-161.8c0.2-0.6,0.7-1.1,1.3-1.1h0c0.6,0,1.2,0.4,1.4,1.1l41.7,161.8
					c0.1,0.4,0,0.9-0.2,1.2C202.8,588,202.4,588.2,202,588.2z M121.3,585.4h78.9l-39.9-154.7L121.3,585.4z"/>
			</g>
		</g>
	</g>
</g>
</svg>
